# xmcd
#
# Track frame offsets:
#	150
#	19792
#	31834
#	49606
#	66507
#	84597
#	102143
#	123684
#	150935
#	170085
#
# Disc length: 2537 seconds
# Revision: 0
# Processed by: cddbd v1.5.2PL0 Copyright (c) Steve Scherf et al.
# Submitted via: dBpowerAMP V12.0
#
DISCID=7a09e70a
DTITLE=The Heifer Belles - The Heifer Belles
DYEAR=2015
DGENRE=Singer/Songwriter
TTITLE0=Missing You Missing Me Blues
TTITLE1=Just Like A Man
TTITLE2=Carnival Man
TTITLE3=If I Lost You
TTITLE4=Soldier
TTITLE5=Homer Wills
TTITLE6=My House
TTITLE7=Utah Land
TTITLE8=Peach Pies
TTITLE9=Now That I'm Loving You
EXTD=
EXTT0=
EXTT1=
EXTT2=
EXTT3=
EXTT4=
EXTT5=
EXTT6=
EXTT7=
EXTT8=
EXTT9=
PLAYORDER=
